<svg width="246" height="26" viewBox="0 0 246 26" fill="none" xmlns="http://www.w3.org/2000/svg">
<path d="M12.864 25.644C8.376 25.644 5.052 24.372 2.892 21.828C2.124 20.916 1.5 19.704 1.02 18.192C0.54 16.68 0.3 14.844 0.3 12.684C0.3 10.524 0.648 8.592 1.344 6.888C2.064 5.16 3.036 3.828 4.26 2.892C6.636 1.14 9.504 0.263999 12.864 0.263999C13.824 0.263999 14.76 0.347999 15.672 0.516C16.584 0.659999 17.268 0.815999 17.724 0.983998L18.372 1.236L18.264 1.596C16.632 0.947999 14.832 0.623998 12.864 0.623998C10.32 0.623998 8.196 1.452 6.492 3.108C5.196 4.332 4.284 6.132 3.756 8.508C3.444 9.852 3.288 11.496 3.288 13.44C3.288 15.384 3.564 17.184 4.116 18.84C4.668 20.472 5.292 21.684 5.988 22.476C6.708 23.268 7.572 23.904 8.58 24.384C9.588 24.84 10.392 25.104 10.992 25.176C11.592 25.248 12.312 25.284 13.152 25.284C14.016 25.284 14.988 25.2 16.068 25.032C17.148 24.864 17.964 24.708 18.516 24.564L19.344 24.312L19.452 24.672C17.628 25.32 15.432 25.644 12.864 25.644ZM25.5068 25.5H22.5188V0.299998H25.5068V11.892H37.2068V0.299998H40.1948V25.5H37.2068V12.252H25.5068V25.5ZM44.5083 0.587999C47.2923 0.395998 49.7523 0.299998 51.8883 0.299998C57.8163 0.299998 60.7803 2.28 60.7803 6.24C60.7803 7.92 60.3723 9.42 59.5563 10.74C58.7403 12.06 57.3363 12.936 55.3443 13.368L62.5443 25.5H59.1963L52.1403 13.584H47.4963V25.5H44.5083V0.587999ZM51.8883 0.659998C50.4963 0.659998 49.0323 0.743998 47.4963 0.911999V13.224H52.8243C56.2083 13.08 57.9003 10.776 57.9003 6.312C57.9003 4.488 57.3963 3.096 56.3883 2.136C55.3803 1.152 53.8803 0.659998 51.8883 0.659998ZM65.4263 0.659998V0.299998H71.8343V0.659998H70.0703V25.14H71.8343V25.5H65.4263V25.14H67.0823V0.659998H65.4263ZM90.1712 1.812C87.9872 0.971999 85.9232 0.551999 83.9792 0.551999C82.0592 0.551999 80.5592 0.959999 79.4792 1.776C78.3992 2.592 77.8592 3.72 77.8592 5.16C77.8592 6.912 78.7712 8.268 80.5952 9.228C81.4112 9.636 82.2992 10.02 83.2592 10.38C84.2432 10.716 85.2272 11.1 86.2112 11.532C87.1952 11.964 88.0952 12.456 88.9112 13.008C89.7272 13.56 90.3872 14.328 90.8912 15.312C91.3952 16.272 91.6472 17.508 91.6472 19.02C91.6472 20.508 91.2272 21.78 90.3872 22.836C89.5472 23.892 88.5272 24.612 87.3272 24.996C86.1512 25.356 84.7712 25.536 83.1872 25.536C80.2352 25.536 77.7152 24.804 75.6272 23.34L75.8072 23.052C76.5992 23.676 77.6192 24.192 78.8672 24.6C80.1392 24.984 81.4352 25.176 82.7552 25.176C84.6992 25.176 86.3552 24.732 87.7232 23.844C89.1152 22.932 89.8112 21.6 89.8112 19.848C89.8112 17.928 88.8992 16.428 87.0752 15.348C86.2592 14.868 85.3592 14.424 84.3752 14.016C83.4152 13.608 82.4432 13.188 81.4592 12.756C80.4752 12.3 79.5752 11.796 78.7592 11.244C76.9352 10.044 76.0232 8.34 76.0232 6.132C76.0232 4.38 76.6112 2.964 77.7872 1.884C78.9632 0.779999 80.7272 0.227999 83.0792 0.227999C85.4552 0.227999 87.8672 0.635999 90.3152 1.452L90.1712 1.812ZM105.164 25.5H104.732L115.496 0.299998L115.892 0.119998L124.964 25.5H121.904L119.096 17.58H108.584L105.164 25.5ZM114.38 4.188L108.728 17.22H118.988L114.38 4.188ZM128.567 0.659998V0.299998H134.975V0.659998H133.211V25.14H134.975V25.5H128.567V25.14H130.223V0.659998H128.567ZM140.028 0.587999C142.812 0.395998 145.272 0.299998 147.408 0.299998C153.336 0.299998 156.3 2.28 156.3 6.24C156.3 7.92 155.892 9.42 155.076 10.74C154.26 12.06 152.856 12.936 150.864 13.368L158.064 25.5H154.716L147.66 13.584H143.016V25.5H140.028V0.587999ZM147.408 0.659998C146.016 0.659998 144.552 0.743998 143.016 0.911999V13.224H148.344C151.728 13.08 153.42 10.776 153.42 6.312C153.42 4.488 152.916 3.096 151.908 2.136C150.9 1.152 149.4 0.659998 147.408 0.659998ZM175.329 25.5H161.649V0.299998H164.637V25.14H175.329V25.5ZM178.946 0.659998V0.299998H185.354V0.659998H183.59V25.14H185.354V25.5H178.946V25.14H180.602V0.659998H178.946ZM190.695 25.5H190.227V0.299998H191.451L206.427 23.592V0.299998H206.895V25.5H204.267L190.695 4.62V25.5ZM226.075 0.299998V0.659998H214.735V11.46H225.247V11.82H214.735V25.14H226.867V25.5H211.747V0.299998H226.075ZM243.945 1.812C241.761 0.971999 239.697 0.551999 237.753 0.551999C235.833 0.551999 234.333 0.959999 233.253 1.776C232.173 2.592 231.633 3.72 231.633 5.16C231.633 6.912 232.545 8.268 234.369 9.228C235.185 9.636 236.073 10.02 237.033 10.38C238.017 10.716 239.001 11.1 239.985 11.532C240.969 11.964 241.869 12.456 242.685 13.008C243.501 13.56 244.161 14.328 244.665 15.312C245.169 16.272 245.421 17.508 245.421 19.02C245.421 20.508 245.001 21.78 244.161 22.836C243.321 23.892 242.301 24.612 241.101 24.996C239.925 25.356 238.545 25.536 236.961 25.536C234.009 25.536 231.489 24.804 229.401 23.34L229.581 23.052C230.373 23.676 231.393 24.192 232.641 24.6C233.913 24.984 235.209 25.176 236.529 25.176C238.473 25.176 240.129 24.732 241.497 23.844C242.889 22.932 243.585 21.6 243.585 19.848C243.585 17.928 242.673 16.428 240.849 15.348C240.033 14.868 239.133 14.424 238.149 14.016C237.189 13.608 236.217 13.188 235.233 12.756C234.249 12.3 233.349 11.796 232.533 11.244C230.709 10.044 229.797 8.34 229.797 6.132C229.797 4.38 230.385 2.964 231.561 1.884C232.737 0.779999 234.501 0.227999 236.853 0.227999C239.229 0.227999 241.641 0.635999 244.089 1.452L243.945 1.812Z" fill="url(#paint0_linear_20_406)" style="mix-blend-mode:darken"/>
<defs>
<linearGradient id="paint0_linear_20_406" x1="247.5" y1="13.5" x2="-1.5" y2="13.5" gradientUnits="userSpaceOnUse">
<stop stop-color="#710D11"/>
<stop offset="0.470445" stop-color="#FF0009"/>
</linearGradient>
</defs>
</svg>
