<svg width="1026" height="69" viewBox="0 0 1026 69" fill="none" xmlns="http://www.w3.org/2000/svg">
<rect width="1026" height="69" fill="white"/>
<path d="M9.32 45.552C10.832 45.552 11.996 45.228 12.812 44.58C13.628 43.908 14.036 42.936 14.036 41.664C14.036 40.608 13.748 39.72 13.172 39C12.62 38.28 11.708 37.728 10.436 37.344L7.52 36.48C5.696 35.928 4.352 35.1 3.488 33.996C2.624 32.868 2.192 31.488 2.192 29.856C2.192 28.608 2.432 27.48 2.912 26.472C3.416 25.464 4.208 24.66 5.288 24.06C6.392 23.46 7.832 23.16 9.608 23.16C10.688 23.16 11.804 23.292 12.956 23.556C14.108 23.796 15.272 24.192 16.448 24.744L15.44 27.444C14.288 26.94 13.244 26.58 12.308 26.364C11.396 26.124 10.52 26.004 9.68 26.004C8.312 26.004 7.244 26.292 6.476 26.868C5.732 27.42 5.36 28.344 5.36 29.64C5.36 30.576 5.612 31.368 6.116 32.016C6.62 32.64 7.52 33.156 8.816 33.564L11.732 34.428C15.38 35.508 17.204 37.836 17.204 41.412C17.204 43.476 16.58 45.156 15.332 46.452C14.084 47.724 12.08 48.36 9.32 48.36C8.192 48.36 6.992 48.228 5.72 47.964C4.472 47.676 3.176 47.232 1.832 46.632L2.804 43.968C4.076 44.544 5.216 44.952 6.224 45.192C7.256 45.432 8.288 45.552 9.32 45.552ZM34.9109 48.18C33.8069 48.18 32.9189 47.928 32.2469 47.424C31.5989 46.92 31.1429 46.296 30.8789 45.552C29.7029 46.584 28.6349 47.316 27.6749 47.748C26.7149 48.156 25.7549 48.36 24.7949 48.36C23.2349 48.36 22.0829 47.856 21.3389 46.848C20.5949 45.84 20.2229 44.604 20.2229 43.14C20.2229 42.156 20.4029 41.28 20.7629 40.512C21.1229 39.744 21.7349 39.144 22.5989 38.712C23.4629 38.256 24.6269 38.028 26.0909 38.028C26.7389 38.028 27.4469 38.076 28.2149 38.172C28.9829 38.244 29.7629 38.34 30.5549 38.46V36.048C30.5549 34.704 30.2549 33.792 29.6549 33.312C29.0789 32.808 28.2269 32.556 27.0989 32.556C25.5629 32.556 23.8469 32.976 21.9509 33.816L21.0149 31.368C22.1189 30.864 23.1749 30.48 24.1829 30.216C25.1909 29.952 26.2109 29.82 27.2429 29.82C28.9229 29.82 30.2069 30.096 31.0949 30.648C31.9829 31.2 32.5949 31.932 32.9309 32.844C33.2669 33.756 33.4349 34.752 33.4349 35.832V43.536C33.4349 44.088 33.5429 44.556 33.7589 44.94C33.9749 45.3 34.4069 45.48 35.0549 45.48H35.4509V48.18H34.9109ZM23.1389 43.104C23.1389 43.92 23.3309 44.58 23.7149 45.084C24.0989 45.588 24.6509 45.84 25.3709 45.84C25.9949 45.84 26.7149 45.66 27.5309 45.3C28.3469 44.916 29.3549 44.16 30.5549 43.032V40.764C28.9229 40.5 27.4829 40.368 26.2349 40.368C25.1309 40.368 24.3389 40.596 23.8589 41.052C23.3789 41.508 23.1389 42.192 23.1389 43.104ZM52.243 30.18L45.943 48H43.171L36.799 30.18H39.859L42.847 38.856L44.647 44.292L46.411 38.856L49.327 30.18H52.243ZM68.7639 46.956C67.6839 47.484 66.6039 47.844 65.5239 48.036C64.4439 48.252 63.4479 48.36 62.5359 48.36C59.9679 48.36 58.0479 47.628 56.7759 46.164C55.5279 44.7 54.9039 42.696 54.9039 40.152V37.992C54.9039 35.52 55.5279 33.54 56.7759 32.052C58.0479 30.564 59.8359 29.82 62.1399 29.82C63.3639 29.82 64.4799 30.072 65.4879 30.576C66.5199 31.056 67.3359 31.8 67.9359 32.808C68.5599 33.792 68.8719 35.064 68.8719 36.624C68.8719 37.632 68.7279 38.784 68.4399 40.08H57.8199V40.152C57.8199 41.976 58.1919 43.356 58.9359 44.292C59.7039 45.228 60.9279 45.696 62.6079 45.696C63.3759 45.696 64.2159 45.6 65.1279 45.408C66.0639 45.216 66.9759 44.916 67.8639 44.508L68.7639 46.956ZM62.1399 32.412C60.7479 32.412 59.6919 32.868 58.9719 33.78C58.2759 34.668 57.8919 35.928 57.8199 37.56H65.8839C65.9559 37.128 65.9919 36.72 65.9919 36.336C65.9919 34.992 65.6079 34.008 64.8399 33.384C64.0959 32.736 63.1959 32.412 62.1399 32.412ZM92.6563 48V45.516C91.5523 46.572 90.5443 47.316 89.6323 47.748C88.7443 48.156 87.8203 48.36 86.8603 48.36C84.9643 48.36 83.5003 47.64 82.4683 46.2C81.4603 44.76 80.9563 42.744 80.9563 40.152V38.064C80.9563 35.544 81.5803 33.54 82.8283 32.052C84.1003 30.564 85.9363 29.82 88.3363 29.82C89.0323 29.82 89.7283 29.892 90.4243 30.036C91.1203 30.18 91.8163 30.384 92.5123 30.648V21.36H95.4643V48H92.6563ZM84.0163 40.152C84.0163 42.024 84.3043 43.404 84.8803 44.292C85.4803 45.156 86.3683 45.588 87.5443 45.588C88.2403 45.588 88.9603 45.42 89.7043 45.084C90.4483 44.724 91.3843 43.992 92.5123 42.888V33.384C91.8163 33.072 91.1443 32.856 90.4963 32.736C89.8483 32.592 89.2123 32.52 88.5883 32.52C86.9563 32.52 85.7803 33.012 85.0603 33.996C84.3643 34.98 84.0163 36.336 84.0163 38.064V40.152ZM114.748 46.956C113.668 47.484 112.588 47.844 111.508 48.036C110.428 48.252 109.432 48.36 108.52 48.36C105.952 48.36 104.032 47.628 102.76 46.164C101.512 44.7 100.888 42.696 100.888 40.152V37.992C100.888 35.52 101.512 33.54 102.76 32.052C104.032 30.564 105.82 29.82 108.124 29.82C109.348 29.82 110.464 30.072 111.472 30.576C112.504 31.056 113.32 31.8 113.92 32.808C114.544 33.792 114.856 35.064 114.856 36.624C114.856 37.632 114.712 38.784 114.424 40.08H103.804V40.152C103.804 41.976 104.176 43.356 104.92 44.292C105.688 45.228 106.912 45.696 108.592 45.696C109.36 45.696 110.2 45.6 111.112 45.408C112.048 45.216 112.96 44.916 113.848 44.508L114.748 46.956ZM108.124 32.412C106.732 32.412 105.676 32.868 104.956 33.78C104.26 34.668 103.876 35.928 103.804 37.56H111.868C111.94 37.128 111.976 36.72 111.976 36.336C111.976 34.992 111.592 34.008 110.824 33.384C110.08 32.736 109.18 32.412 108.124 32.412ZM124.321 45.732C126.721 45.732 127.921 44.916 127.921 43.284C127.921 42.588 127.705 42.036 127.273 41.628C126.841 41.22 126.049 40.872 124.897 40.584L122.917 40.08C121.453 39.72 120.361 39.096 119.641 38.208C118.921 37.296 118.561 36.216 118.561 34.968C118.561 34.056 118.765 33.216 119.173 32.448C119.581 31.656 120.229 31.02 121.117 30.54C122.005 30.06 123.157 29.82 124.573 29.82C125.485 29.82 126.409 29.928 127.345 30.144C128.305 30.336 129.277 30.672 130.261 31.152L129.325 33.636C127.573 32.844 125.989 32.448 124.573 32.448C122.485 32.448 121.441 33.228 121.441 34.788C121.441 35.388 121.633 35.904 122.017 36.336C122.401 36.768 123.121 37.116 124.177 37.38L126.157 37.884C127.741 38.268 128.905 38.892 129.649 39.756C130.393 40.62 130.765 41.736 130.765 43.104C130.765 44.088 130.549 44.988 130.117 45.804C129.709 46.596 129.037 47.22 128.101 47.676C127.189 48.132 125.953 48.36 124.393 48.36C123.361 48.36 122.329 48.252 121.297 48.036C120.289 47.82 119.245 47.472 118.165 46.992L118.957 44.544C119.989 44.952 120.925 45.252 121.765 45.444C122.605 45.636 123.457 45.732 124.321 45.732ZM145.261 47.352C143.917 48.024 142.489 48.36 140.977 48.36C139.681 48.36 138.661 48.096 137.917 47.568C137.197 47.04 136.681 46.332 136.369 45.444C136.081 44.556 135.937 43.572 135.937 42.492V32.772H132.841V30.18H135.937V25.212H138.889V30.18H144.721V32.772H138.889V42.384C138.889 43.632 139.093 44.496 139.501 44.976C139.933 45.432 140.593 45.66 141.481 45.66C141.913 45.66 142.357 45.612 142.813 45.516C143.293 45.396 143.809 45.204 144.361 44.94L145.261 47.352ZM152.277 25.824H148.965V22.512H152.277V25.824ZM152.097 48H149.145V30.18H152.097V48ZM167.029 32.592C166.357 32.592 165.565 32.76 164.653 33.096C163.765 33.432 162.685 34.116 161.413 35.148V48H158.461V30.18H161.269V32.664C162.541 31.584 163.693 30.84 164.725 30.432C165.781 30.024 166.789 29.82 167.749 29.82C169.405 29.82 170.665 30.348 171.529 31.404C172.417 32.436 172.861 33.912 172.861 35.832V48H169.909V36.264C169.909 33.816 168.949 32.592 167.029 32.592ZM192.059 48.18C190.955 48.18 190.067 47.928 189.395 47.424C188.747 46.92 188.291 46.296 188.027 45.552C186.851 46.584 185.783 47.316 184.823 47.748C183.863 48.156 182.903 48.36 181.943 48.36C180.383 48.36 179.231 47.856 178.487 46.848C177.743 45.84 177.371 44.604 177.371 43.14C177.371 42.156 177.551 41.28 177.911 40.512C178.271 39.744 178.883 39.144 179.747 38.712C180.611 38.256 181.775 38.028 183.239 38.028C183.887 38.028 184.595 38.076 185.363 38.172C186.131 38.244 186.911 38.34 187.703 38.46V36.048C187.703 34.704 187.403 33.792 186.803 33.312C186.227 32.808 185.375 32.556 184.247 32.556C182.711 32.556 180.995 32.976 179.099 33.816L178.163 31.368C179.267 30.864 180.323 30.48 181.331 30.216C182.339 29.952 183.359 29.82 184.391 29.82C186.071 29.82 187.355 30.096 188.243 30.648C189.131 31.2 189.743 31.932 190.079 32.844C190.415 33.756 190.583 34.752 190.583 35.832V43.536C190.583 44.088 190.691 44.556 190.907 44.94C191.123 45.3 191.555 45.48 192.203 45.48H192.599V48.18H192.059ZM180.287 43.104C180.287 43.92 180.479 44.58 180.863 45.084C181.247 45.588 181.799 45.84 182.519 45.84C183.143 45.84 183.863 45.66 184.679 45.3C185.495 44.916 186.503 44.16 187.703 43.032V40.764C186.071 40.5 184.631 40.368 183.383 40.368C182.279 40.368 181.487 40.596 181.007 41.052C180.527 41.508 180.287 42.192 180.287 43.104ZM206.573 47.352C205.229 48.024 203.801 48.36 202.289 48.36C200.993 48.36 199.973 48.096 199.229 47.568C198.509 47.04 197.993 46.332 197.681 45.444C197.393 44.556 197.249 43.572 197.249 42.492V32.772H194.153V30.18H197.249V25.212H200.201V30.18H206.033V32.772H200.201V42.384C200.201 43.632 200.405 44.496 200.813 44.976C201.245 45.432 201.905 45.66 202.793 45.66C203.225 45.66 203.669 45.612 204.125 45.516C204.605 45.396 205.121 45.204 205.673 44.94L206.573 47.352ZM213.589 25.824H210.277V22.512H213.589V25.824ZM213.409 48H210.457V30.18H213.409V48ZM233.885 37.992V40.152C233.885 42.696 233.225 44.7 231.905 46.164C230.609 47.628 228.749 48.36 226.325 48.36C223.925 48.36 222.065 47.628 220.745 46.164C219.425 44.7 218.765 42.696 218.765 40.152V37.992C218.765 35.496 219.413 33.516 220.709 32.052C222.029 30.564 223.901 29.82 226.325 29.82C228.749 29.82 230.609 30.564 231.905 32.052C233.225 33.516 233.885 35.496 233.885 37.992ZM230.825 37.992C230.825 36.288 230.441 34.956 229.673 33.996C228.905 33.012 227.789 32.52 226.325 32.52C224.885 32.52 223.769 33.012 222.977 33.996C222.209 34.956 221.825 36.288 221.825 37.992V40.152C221.825 41.928 222.209 43.296 222.977 44.256C223.769 45.216 224.885 45.696 226.325 45.696C227.789 45.696 228.905 45.216 229.673 44.256C230.441 43.296 230.825 41.928 230.825 40.152V37.992ZM247.818 32.592C247.146 32.592 246.354 32.76 245.442 33.096C244.554 33.432 243.474 34.116 242.202 35.148V48H239.25V30.18H242.058V32.664C243.33 31.584 244.482 30.84 245.514 30.432C246.57 30.024 247.578 29.82 248.538 29.82C250.194 29.82 251.454 30.348 252.318 31.404C253.206 32.436 253.65 33.912 253.65 35.832V48H250.698V36.264C250.698 33.816 249.738 32.592 247.818 32.592ZM264.172 45.732C266.572 45.732 267.772 44.916 267.772 43.284C267.772 42.588 267.556 42.036 267.124 41.628C266.692 41.22 265.9 40.872 264.748 40.584L262.768 40.08C261.304 39.72 260.212 39.096 259.492 38.208C258.772 37.296 258.412 36.216 258.412 34.968C258.412 34.056 258.616 33.216 259.024 32.448C259.432 31.656 260.08 31.02 260.968 30.54C261.856 30.06 263.008 29.82 264.424 29.82C265.336 29.82 266.26 29.928 267.196 30.144C268.156 30.336 269.128 30.672 270.112 31.152L269.176 33.636C267.424 32.844 265.84 32.448 264.424 32.448C262.336 32.448 261.292 33.228 261.292 34.788C261.292 35.388 261.484 35.904 261.868 36.336C262.252 36.768 262.972 37.116 264.028 37.38L266.008 37.884C267.592 38.268 268.756 38.892 269.5 39.756C270.244 40.62 270.616 41.736 270.616 43.104C270.616 44.088 270.4 44.988 269.968 45.804C269.56 46.596 268.888 47.22 267.952 47.676C267.04 48.132 265.804 48.36 264.244 48.36C263.212 48.36 262.18 48.252 261.148 48.036C260.14 47.82 259.096 47.472 258.016 46.992L258.808 44.544C259.84 44.952 260.776 45.252 261.616 45.444C262.456 45.636 263.308 45.732 264.172 45.732ZM296.192 48.18C295.088 48.18 294.2 47.928 293.528 47.424C292.88 46.92 292.424 46.296 292.16 45.552C290.984 46.584 289.916 47.316 288.956 47.748C287.996 48.156 287.036 48.36 286.076 48.36C284.516 48.36 283.364 47.856 282.62 46.848C281.876 45.84 281.504 44.604 281.504 43.14C281.504 42.156 281.684 41.28 282.044 40.512C282.404 39.744 283.016 39.144 283.88 38.712C284.744 38.256 285.908 38.028 287.372 38.028C288.02 38.028 288.728 38.076 289.496 38.172C290.264 38.244 291.044 38.34 291.836 38.46V36.048C291.836 34.704 291.536 33.792 290.936 33.312C290.36 32.808 289.508 32.556 288.38 32.556C286.844 32.556 285.128 32.976 283.232 33.816L282.296 31.368C283.4 30.864 284.456 30.48 285.464 30.216C286.472 29.952 287.492 29.82 288.524 29.82C290.204 29.82 291.488 30.096 292.376 30.648C293.264 31.2 293.876 31.932 294.212 32.844C294.548 33.756 294.716 34.752 294.716 35.832V43.536C294.716 44.088 294.824 44.556 295.04 44.94C295.256 45.3 295.688 45.48 296.336 45.48H296.732V48.18H296.192ZM284.42 43.104C284.42 43.92 284.612 44.58 284.996 45.084C285.38 45.588 285.932 45.84 286.652 45.84C287.276 45.84 287.996 45.66 288.812 45.3C289.628 44.916 290.636 44.16 291.836 43.032V40.764C290.204 40.5 288.764 40.368 287.516 40.368C286.412 40.368 285.62 40.596 285.14 41.052C284.66 41.508 284.42 42.192 284.42 43.104ZM300.878 43.68V21.36H303.83V43.536C303.83 44.184 303.926 44.676 304.118 45.012C304.334 45.324 304.754 45.48 305.378 45.48H305.954V48.18H305.126C303.542 48.18 302.438 47.76 301.814 46.92C301.19 46.08 300.878 45 300.878 43.68ZM310.37 43.68V21.36H313.322V43.536C313.322 44.184 313.418 44.676 313.61 45.012C313.826 45.324 314.246 45.48 314.87 45.48H315.446V48.18H314.618C313.034 48.18 311.93 47.76 311.306 46.92C310.682 46.08 310.37 45 310.37 43.68ZM330.87 25.824H327.558V22.512H330.87V25.824ZM330.69 48H327.738V30.18H330.69V48ZM345.623 32.592C344.951 32.592 344.159 32.76 343.247 33.096C342.359 33.432 341.279 34.116 340.007 35.148V48H337.055V30.18H339.863V32.664C341.135 31.584 342.287 30.84 343.319 30.432C344.375 30.024 345.383 29.82 346.343 29.82C347.999 29.82 349.259 30.348 350.123 31.404C351.011 32.436 351.455 33.912 351.455 35.832V48H348.503V36.264C348.503 33.816 347.543 32.592 345.623 32.592ZM379.573 37.992V40.152C379.573 42.696 378.913 44.7 377.593 46.164C376.297 47.628 374.437 48.36 372.013 48.36C369.613 48.36 367.753 47.628 366.433 46.164C365.113 44.7 364.453 42.696 364.453 40.152V37.992C364.453 35.496 365.101 33.516 366.397 32.052C367.717 30.564 369.589 29.82 372.013 29.82C374.437 29.82 376.297 30.564 377.593 32.052C378.913 33.516 379.573 35.496 379.573 37.992ZM376.513 37.992C376.513 36.288 376.129 34.956 375.361 33.996C374.593 33.012 373.477 32.52 372.013 32.52C370.573 32.52 369.457 33.012 368.665 33.996C367.897 34.956 367.513 36.288 367.513 37.992V40.152C367.513 41.928 367.897 43.296 368.665 44.256C369.457 45.216 370.573 45.696 372.013 45.696C373.477 45.696 374.593 45.216 375.361 44.256C376.129 43.296 376.513 41.928 376.513 40.152V37.992ZM393.506 32.592C392.834 32.592 392.042 32.76 391.13 33.096C390.242 33.432 389.162 34.116 387.89 35.148V48H384.938V30.18H387.746V32.664C389.018 31.584 390.17 30.84 391.202 30.432C392.258 30.024 393.266 29.82 394.226 29.82C395.882 29.82 397.142 30.348 398.006 31.404C398.894 32.436 399.338 33.912 399.338 35.832V48H396.386V36.264C396.386 33.816 395.426 32.592 393.506 32.592ZM418.428 46.956C417.348 47.484 416.268 47.844 415.188 48.036C414.108 48.252 413.112 48.36 412.2 48.36C409.632 48.36 407.712 47.628 406.44 46.164C405.192 44.7 404.568 42.696 404.568 40.152V37.992C404.568 35.52 405.192 33.54 406.44 32.052C407.712 30.564 409.5 29.82 411.804 29.82C413.028 29.82 414.144 30.072 415.152 30.576C416.184 31.056 417 31.8 417.6 32.808C418.224 33.792 418.536 35.064 418.536 36.624C418.536 37.632 418.392 38.784 418.104 40.08H407.484V40.152C407.484 41.976 407.856 43.356 408.6 44.292C409.368 45.228 410.592 45.696 412.272 45.696C413.04 45.696 413.88 45.6 414.792 45.408C415.728 45.216 416.64 44.916 417.528 44.508L418.428 46.956ZM411.804 32.412C410.412 32.412 409.356 32.868 408.636 33.78C407.94 34.668 407.556 35.928 407.484 37.56H415.548C415.62 37.128 415.656 36.72 415.656 36.336C415.656 34.992 415.272 34.008 414.504 33.384C413.76 32.736 412.86 32.412 411.804 32.412ZM438.612 48.36C437.268 48.36 435.876 48.084 434.436 47.532V55.668H431.484V30.18H434.292V32.7C435.396 31.644 436.404 30.9 437.316 30.468C438.228 30.036 439.164 29.82 440.124 29.82C442.02 29.82 443.472 30.54 444.48 31.98C445.512 33.42 446.028 35.448 446.028 38.064V40.152C446.028 42.648 445.392 44.64 444.12 46.128C442.872 47.616 441.036 48.36 438.612 48.36ZM439.404 32.592C438.708 32.592 437.988 32.772 437.244 33.132C436.5 33.492 435.564 34.224 434.436 35.328V44.832C435.132 45.144 435.804 45.372 436.452 45.516C437.1 45.636 437.736 45.696 438.36 45.696C439.992 45.696 441.168 45.204 441.888 44.22C442.608 43.212 442.968 41.856 442.968 40.152V38.064C442.968 36.192 442.668 34.812 442.068 33.924C441.492 33.036 440.604 32.592 439.404 32.592ZM451.452 43.68V21.36H454.404V43.536C454.404 44.184 454.5 44.676 454.692 45.012C454.908 45.324 455.328 45.48 455.952 45.48H456.528V48.18H455.7C454.116 48.18 453.012 47.76 452.388 46.92C451.764 46.08 451.452 45 451.452 43.68ZM474.013 48.18C472.909 48.18 472.021 47.928 471.349 47.424C470.701 46.92 470.245 46.296 469.981 45.552C468.805 46.584 467.737 47.316 466.777 47.748C465.817 48.156 464.857 48.36 463.897 48.36C462.337 48.36 461.185 47.856 460.441 46.848C459.697 45.84 459.325 44.604 459.325 43.14C459.325 42.156 459.505 41.28 459.865 40.512C460.225 39.744 460.837 39.144 461.701 38.712C462.565 38.256 463.729 38.028 465.193 38.028C465.841 38.028 466.549 38.076 467.316 38.172C468.085 38.244 468.865 38.34 469.657 38.46V36.048C469.657 34.704 469.357 33.792 468.757 33.312C468.181 32.808 467.329 32.556 466.201 32.556C464.665 32.556 462.949 32.976 461.053 33.816L460.117 31.368C461.221 30.864 462.277 30.48 463.285 30.216C464.293 29.952 465.313 29.82 466.345 29.82C468.025 29.82 469.309 30.096 470.197 30.648C471.085 31.2 471.697 31.932 472.033 32.844C472.369 33.756 472.537 34.752 472.537 35.832V43.536C472.537 44.088 472.645 44.556 472.861 44.94C473.077 45.3 473.509 45.48 474.157 45.48H474.553V48.18H474.013ZM462.241 43.104C462.241 43.92 462.433 44.58 462.817 45.084C463.201 45.588 463.753 45.84 464.473 45.84C465.097 45.84 465.817 45.66 466.633 45.3C467.449 44.916 468.457 44.16 469.657 43.032V40.764C468.025 40.5 466.585 40.368 465.337 40.368C464.233 40.368 463.441 40.596 462.961 41.052C462.481 41.508 462.241 42.192 462.241 43.104ZM480.822 38.028V40.152C480.822 41.976 481.158 43.356 481.83 44.292C482.502 45.204 483.57 45.66 485.034 45.66C486.474 45.66 488.022 45.288 489.678 44.544L490.578 47.028C488.61 47.916 486.702 48.36 484.854 48.36C482.55 48.36 480.798 47.628 479.598 46.164C478.398 44.7 477.798 42.696 477.798 40.152V38.028C477.798 35.484 478.398 33.48 479.598 32.016C480.798 30.552 482.55 29.82 484.854 29.82C485.718 29.82 486.606 29.94 487.518 30.18C488.454 30.396 489.39 30.708 490.326 31.116L489.426 33.636C488.634 33.3 487.866 33.036 487.122 32.844C486.402 32.652 485.706 32.556 485.034 32.556C483.57 32.556 482.502 33.024 481.83 33.96C481.158 34.872 480.822 36.228 480.822 38.028ZM507.76 46.956C506.68 47.484 505.6 47.844 504.52 48.036C503.44 48.252 502.444 48.36 501.532 48.36C498.964 48.36 497.044 47.628 495.772 46.164C494.524 44.7 493.9 42.696 493.9 40.152V37.992C493.9 35.52 494.524 33.54 495.772 32.052C497.044 30.564 498.832 29.82 501.136 29.82C502.36 29.82 503.476 30.072 504.484 30.576C505.516 31.056 506.332 31.8 506.932 32.808C507.556 33.792 507.868 35.064 507.868 36.624C507.868 37.632 507.724 38.784 507.436 40.08H496.816V40.152C496.816 41.976 497.188 43.356 497.932 44.292C498.7 45.228 499.924 45.696 501.604 45.696C502.372 45.696 503.212 45.6 504.124 45.408C505.06 45.216 505.972 44.916 506.86 44.508L507.76 46.956ZM501.136 32.412C499.744 32.412 498.688 32.868 497.968 33.78C497.272 34.668 496.888 35.928 496.816 37.56H504.88C504.952 37.128 504.988 36.72 504.988 36.336C504.988 34.992 504.604 34.008 503.836 33.384C503.092 32.736 502.192 32.412 501.136 32.412ZM511.825 38.388V35.796H536.305V38.388H511.825ZM554.412 46.956C553.332 47.484 552.252 47.844 551.172 48.036C550.092 48.252 549.096 48.36 548.184 48.36C545.616 48.36 543.696 47.628 542.424 46.164C541.176 44.7 540.552 42.696 540.552 40.152V37.992C540.552 35.52 541.176 33.54 542.424 32.052C543.696 30.564 545.484 29.82 547.788 29.82C549.012 29.82 550.128 30.072 551.136 30.576C552.168 31.056 552.984 31.8 553.584 32.808C554.208 33.792 554.52 35.064 554.52 36.624C554.52 37.632 554.376 38.784 554.088 40.08H543.468V40.152C543.468 41.976 543.84 43.356 544.584 44.292C545.352 45.228 546.576 45.696 548.256 45.696C549.024 45.696 549.864 45.6 550.776 45.408C551.712 45.216 552.624 44.916 553.512 44.508L554.412 46.956ZM547.788 32.412C546.396 32.412 545.34 32.868 544.62 33.78C543.924 34.668 543.54 35.928 543.468 37.56H551.532C551.604 37.128 551.64 36.72 551.64 36.336C551.64 34.992 551.256 34.008 550.488 33.384C549.744 32.736 548.844 32.412 547.788 32.412ZM572.591 30.18L566.291 48H563.519L557.147 30.18H560.207L563.195 38.856L564.995 44.292L566.759 38.856L569.675 30.18H572.591ZM589.112 46.956C588.032 47.484 586.952 47.844 585.872 48.036C584.792 48.252 583.796 48.36 582.884 48.36C580.316 48.36 578.396 47.628 577.124 46.164C575.876 44.7 575.252 42.696 575.252 40.152V37.992C575.252 35.52 575.876 33.54 577.124 32.052C578.396 30.564 580.184 29.82 582.488 29.82C583.712 29.82 584.828 30.072 585.836 30.576C586.868 31.056 587.684 31.8 588.284 32.808C588.908 33.792 589.22 35.064 589.22 36.624C589.22 37.632 589.076 38.784 588.788 40.08H578.168V40.152C578.168 41.976 578.54 43.356 579.284 44.292C580.052 45.228 581.276 45.696 582.956 45.696C583.724 45.696 584.564 45.6 585.476 45.408C586.412 45.216 587.324 44.916 588.212 44.508L589.112 46.956ZM582.488 32.412C581.096 32.412 580.04 32.868 579.32 33.78C578.624 34.668 578.24 35.928 578.168 37.56H586.232C586.304 37.128 586.34 36.72 586.34 36.336C586.34 34.992 585.956 34.008 585.188 33.384C584.444 32.736 583.544 32.412 582.488 32.412ZM602.896 32.592C602.224 32.592 601.432 32.76 600.52 33.096C599.632 33.432 598.552 34.116 597.28 35.148V48H594.328V30.18H597.136V32.664C598.408 31.584 599.56 30.84 600.592 30.432C601.648 30.024 602.656 29.82 603.616 29.82C605.272 29.82 606.532 30.348 607.396 31.404C608.284 32.436 608.728 33.912 608.728 35.832V48H605.776V36.264C605.776 33.816 604.816 32.592 602.896 32.592ZM625.866 25.824H622.554V22.512H625.866V25.824ZM625.686 48H622.734V30.18H625.686V48ZM641.411 32.772H635.579V48H632.627V32.772H629.531V30.18H632.627V27.228C632.627 26.124 632.807 25.104 633.167 24.168C633.551 23.208 634.163 22.44 635.003 21.864C635.843 21.288 636.959 21 638.351 21C639.047 21 639.779 21.084 640.547 21.252C641.339 21.396 642.071 21.624 642.743 21.936L641.915 24.42C640.691 23.94 639.623 23.7 638.711 23.7C637.703 23.7 636.923 23.976 636.371 24.528C635.843 25.08 635.579 25.968 635.579 27.192V30.18H641.411V32.772ZM658.561 49.8C657.793 51.96 656.845 53.532 655.717 54.516C654.613 55.524 653.065 56.028 651.073 56.028V53.112C651.889 53.088 652.585 52.98 653.161 52.788C653.761 52.596 654.289 52.2 654.745 51.6C655.225 51.024 655.681 50.16 656.113 49.008L656.473 48.108L650.065 30.18H653.089L656.077 38.856L657.913 44.4L659.677 38.856L662.593 30.18H665.509L658.561 49.8ZM683.218 37.992V40.152C683.218 42.696 682.558 44.7 681.238 46.164C679.942 47.628 678.082 48.36 675.658 48.36C673.258 48.36 671.398 47.628 670.078 46.164C668.758 44.7 668.098 42.696 668.098 40.152V37.992C668.098 35.496 668.746 33.516 670.042 32.052C671.362 30.564 673.234 29.82 675.658 29.82C678.082 29.82 679.942 30.564 681.238 32.052C682.558 33.516 683.218 35.496 683.218 37.992ZM680.158 37.992C680.158 36.288 679.774 34.956 679.006 33.996C678.238 33.012 677.122 32.52 675.658 32.52C674.218 32.52 673.102 33.012 672.31 33.996C671.542 34.956 671.158 36.288 671.158 37.992V40.152C671.158 41.928 671.542 43.296 672.31 44.256C673.102 45.216 674.218 45.696 675.658 45.696C677.122 45.696 678.238 45.216 679.006 44.256C679.774 43.296 680.158 41.928 680.158 40.152V37.992ZM699.562 48V45.48C698.314 46.56 697.198 47.316 696.214 47.748C695.23 48.156 694.246 48.36 693.262 48.36C691.678 48.36 690.466 47.844 689.626 46.812C688.786 45.756 688.366 44.28 688.366 42.384V30.18H691.318V41.952C691.318 43.2 691.534 44.124 691.966 44.724C692.422 45.3 693.094 45.588 693.982 45.588C694.654 45.588 695.41 45.42 696.25 45.084C697.09 44.748 698.134 44.076 699.382 43.068V30.18H702.334V48H699.562ZM709.951 32.52H708.007L707.539 26.328V23.52H710.419V26.328L709.951 32.52ZM724.309 32.772C723.229 32.772 722.173 32.964 721.141 33.348C720.133 33.732 719.053 34.464 717.901 35.544V48H714.949V30.18H717.757V33.06C718.981 31.86 720.097 31.02 721.105 30.54C722.137 30.06 723.205 29.82 724.309 29.82V32.772ZM741.092 46.956C740.012 47.484 738.932 47.844 737.852 48.036C736.772 48.252 735.776 48.36 734.864 48.36C732.296 48.36 730.376 47.628 729.104 46.164C727.856 44.7 727.232 42.696 727.232 40.152V37.992C727.232 35.52 727.856 33.54 729.104 32.052C730.376 30.564 732.164 29.82 734.468 29.82C735.692 29.82 736.808 30.072 737.816 30.576C738.848 31.056 739.664 31.8 740.264 32.808C740.888 33.792 741.2 35.064 741.2 36.624C741.2 37.632 741.056 38.784 740.768 40.08H730.148V40.152C730.148 41.976 730.52 43.356 731.264 44.292C732.032 45.228 733.256 45.696 734.936 45.696C735.704 45.696 736.544 45.6 737.456 45.408C738.392 45.216 739.304 44.916 740.192 44.508L741.092 46.956ZM734.468 32.412C733.076 32.412 732.02 32.868 731.3 33.78C730.604 34.668 730.22 35.928 730.148 37.56H738.212C738.284 37.128 738.32 36.72 738.32 36.336C738.32 34.992 737.936 34.008 737.168 33.384C736.424 32.736 735.524 32.412 734.468 32.412ZM762.716 32.592C762.044 32.592 761.252 32.76 760.34 33.096C759.452 33.432 758.372 34.116 757.1 35.148V48H754.148V30.18H756.956V32.664C758.228 31.584 759.38 30.84 760.412 30.432C761.468 30.024 762.476 29.82 763.436 29.82C765.092 29.82 766.352 30.348 767.216 31.404C768.104 32.436 768.548 33.912 768.548 35.832V48H765.596V36.264C765.596 33.816 764.636 32.592 762.716 32.592ZM788.827 37.992V40.152C788.827 42.696 788.167 44.7 786.847 46.164C785.551 47.628 783.691 48.36 781.267 48.36C778.867 48.36 777.007 47.628 775.687 46.164C774.367 44.7 773.707 42.696 773.707 40.152V37.992C773.707 35.496 774.355 33.516 775.651 32.052C776.971 30.564 778.843 29.82 781.267 29.82C783.691 29.82 785.551 30.564 786.847 32.052C788.167 33.516 788.827 35.496 788.827 37.992ZM785.767 37.992C785.767 36.288 785.383 34.956 784.615 33.996C783.847 33.012 782.731 32.52 781.267 32.52C779.827 32.52 778.711 33.012 777.919 33.996C777.151 34.956 776.767 36.288 776.767 37.992V40.152C776.767 41.928 777.151 43.296 777.919 44.256C778.711 45.216 779.827 45.696 781.267 45.696C782.731 45.696 783.847 45.216 784.615 44.256C785.383 43.296 785.767 41.928 785.767 40.152V37.992ZM803.983 47.352C802.639 48.024 801.211 48.36 799.699 48.36C798.403 48.36 797.383 48.096 796.639 47.568C795.919 47.04 795.403 46.332 795.091 45.444C794.803 44.556 794.659 43.572 794.659 42.492V32.772H791.563V30.18H794.659V25.212H797.611V30.18H803.443V32.772H797.611V42.384C797.611 43.632 797.815 44.496 798.223 44.976C798.655 45.432 799.315 45.66 800.203 45.66C800.635 45.66 801.079 45.612 801.535 45.516C802.015 45.396 802.531 45.204 803.083 44.94L803.983 47.352ZM825.067 32.772C823.987 32.772 822.931 32.964 821.899 33.348C820.891 33.732 819.811 34.464 818.659 35.544V48H815.707V30.18H818.515V33.06C819.739 31.86 820.855 31.02 821.863 30.54C822.895 30.06 823.963 29.82 825.067 29.82V32.772ZM841.85 46.956C840.77 47.484 839.69 47.844 838.61 48.036C837.53 48.252 836.534 48.36 835.622 48.36C833.054 48.36 831.134 47.628 829.862 46.164C828.614 44.7 827.99 42.696 827.99 40.152V37.992C827.99 35.52 828.614 33.54 829.862 32.052C831.134 30.564 832.922 29.82 835.226 29.82C836.45 29.82 837.566 30.072 838.574 30.576C839.606 31.056 840.422 31.8 841.022 32.808C841.646 33.792 841.958 35.064 841.958 36.624C841.958 37.632 841.814 38.784 841.526 40.08H830.906V40.152C830.906 41.976 831.278 43.356 832.022 44.292C832.79 45.228 834.014 45.696 835.694 45.696C836.462 45.696 837.302 45.6 838.214 45.408C839.15 45.216 840.062 44.916 840.95 44.508L841.85 46.956ZM835.226 32.412C833.834 32.412 832.778 32.868 832.058 33.78C831.362 34.668 830.978 35.928 830.906 37.56H838.97C839.042 37.128 839.078 36.72 839.078 36.336C839.078 34.992 838.694 34.008 837.926 33.384C837.182 32.736 836.282 32.412 835.226 32.412ZM860.098 48.18C858.994 48.18 858.106 47.928 857.434 47.424C856.786 46.92 856.33 46.296 856.066 45.552C854.89 46.584 853.822 47.316 852.862 47.748C851.902 48.156 850.942 48.36 849.982 48.36C848.422 48.36 847.27 47.856 846.526 46.848C845.782 45.84 845.41 44.604 845.41 43.14C845.41 42.156 845.59 41.28 845.95 40.512C846.31 39.744 846.922 39.144 847.786 38.712C848.65 38.256 849.814 38.028 851.278 38.028C851.926 38.028 852.634 38.076 853.402 38.172C854.17 38.244 854.95 38.34 855.742 38.46V36.048C855.742 34.704 855.442 33.792 854.842 33.312C854.266 32.808 853.414 32.556 852.286 32.556C850.75 32.556 849.034 32.976 847.138 33.816L846.202 31.368C847.306 30.864 848.362 30.48 849.37 30.216C850.378 29.952 851.398 29.82 852.43 29.82C854.11 29.82 855.394 30.096 856.282 30.648C857.17 31.2 857.782 31.932 858.118 32.844C858.454 33.756 858.622 34.752 858.622 35.832V43.536C858.622 44.088 858.73 44.556 858.946 44.94C859.162 45.3 859.594 45.48 860.242 45.48H860.638V48.18H860.098ZM848.326 43.104C848.326 43.92 848.518 44.58 848.902 45.084C849.286 45.588 849.838 45.84 850.558 45.84C851.182 45.84 851.902 45.66 852.718 45.3C853.534 44.916 854.542 44.16 855.742 43.032V40.764C854.11 40.5 852.67 40.368 851.422 40.368C850.318 40.368 849.526 40.596 849.046 41.052C848.566 41.508 848.326 42.192 848.326 43.104ZM875.656 48V45.516C874.552 46.572 873.544 47.316 872.632 47.748C871.744 48.156 870.82 48.36 869.86 48.36C867.964 48.36 866.5 47.64 865.468 46.2C864.46 44.76 863.956 42.744 863.956 40.152V38.064C863.956 35.544 864.58 33.54 865.828 32.052C867.1 30.564 868.936 29.82 871.336 29.82C872.032 29.82 872.728 29.892 873.424 30.036C874.12 30.18 874.816 30.384 875.512 30.648V21.36H878.464V48H875.656ZM867.016 40.152C867.016 42.024 867.304 43.404 867.88 44.292C868.48 45.156 869.368 45.588 870.544 45.588C871.24 45.588 871.96 45.42 872.704 45.084C873.448 44.724 874.384 43.992 875.512 42.888V33.384C874.816 33.072 874.144 32.856 873.496 32.736C872.848 32.592 872.212 32.52 871.588 32.52C869.956 32.52 868.78 33.012 868.06 33.996C867.364 34.98 867.016 36.336 867.016 38.064V40.152ZM890.908 49.8C890.14 51.96 889.192 53.532 888.064 54.516C886.96 55.524 885.412 56.028 883.42 56.028V53.112C884.236 53.088 884.932 52.98 885.508 52.788C886.108 52.596 886.636 52.2 887.092 51.6C887.572 51.024 888.028 50.16 888.46 49.008L888.82 48.108L882.412 30.18H885.436L888.424 38.856L890.26 44.4L892.024 38.856L894.94 30.18H897.856L890.908 49.8ZM919.437 47.352C918.093 48.024 916.665 48.36 915.153 48.36C913.857 48.36 912.837 48.096 912.093 47.568C911.373 47.04 910.857 46.332 910.545 45.444C910.257 44.556 910.113 43.572 910.113 42.492V32.772H907.017V30.18H910.113V25.212H913.065V30.18H918.897V32.772H913.065V42.384C913.065 43.632 913.269 44.496 913.677 44.976C914.109 45.432 914.769 45.66 915.657 45.66C916.089 45.66 916.533 45.612 916.989 45.516C917.469 45.396 917.985 45.204 918.537 44.94L919.437 47.352ZM937.432 37.992V40.152C937.432 42.696 936.772 44.7 935.452 46.164C934.156 47.628 932.296 48.36 929.872 48.36C927.472 48.36 925.612 47.628 924.292 46.164C922.972 44.7 922.312 42.696 922.312 40.152V37.992C922.312 35.496 922.96 33.516 924.256 32.052C925.576 30.564 927.448 29.82 929.872 29.82C932.296 29.82 934.156 30.564 935.452 32.052C936.772 33.516 937.432 35.496 937.432 37.992ZM934.372 37.992C934.372 36.288 933.988 34.956 933.22 33.996C932.452 33.012 931.336 32.52 929.872 32.52C928.432 32.52 927.316 33.012 926.524 33.996C925.756 34.956 925.372 36.288 925.372 37.992V40.152C925.372 41.928 925.756 43.296 926.524 44.256C927.316 45.216 928.432 45.696 929.872 45.696C931.336 45.696 932.452 45.216 933.22 44.256C933.988 43.296 934.372 41.928 934.372 40.152V37.992ZM965.037 40.152C965.037 42.648 964.413 44.64 963.165 46.128C961.917 47.616 960.081 48.36 957.657 48.36C955.257 48.36 952.881 47.724 950.529 46.452V21.36H953.481V32.592C954.561 31.584 955.545 30.876 956.433 30.468C957.345 30.036 958.269 29.82 959.205 29.82C961.077 29.82 962.517 30.54 963.525 31.98C964.533 33.42 965.037 35.448 965.037 38.064V40.152ZM958.485 32.592C957.813 32.592 957.093 32.772 956.325 33.132C955.581 33.492 954.633 34.236 953.481 35.364V44.796C954.897 45.396 956.229 45.696 957.477 45.696C959.085 45.696 960.237 45.204 960.933 44.22C961.629 43.212 961.977 41.856 961.977 40.152V38.064C961.977 36.192 961.689 34.812 961.113 33.924C960.537 33.036 959.661 32.592 958.485 32.592ZM984.612 37.992V40.152C984.612 42.696 983.952 44.7 982.632 46.164C981.336 47.628 979.476 48.36 977.052 48.36C974.652 48.36 972.792 47.628 971.472 46.164C970.152 44.7 969.492 42.696 969.492 40.152V37.992C969.492 35.496 970.14 33.516 971.436 32.052C972.756 30.564 974.628 29.82 977.052 29.82C979.476 29.82 981.336 30.564 982.632 32.052C983.952 33.516 984.612 35.496 984.612 37.992ZM981.552 37.992C981.552 36.288 981.168 34.956 980.4 33.996C979.632 33.012 978.516 32.52 977.052 32.52C975.612 32.52 974.496 33.012 973.704 33.996C972.936 34.956 972.552 36.288 972.552 37.992V40.152C972.552 41.928 972.936 43.296 973.704 44.256C974.496 45.216 975.612 45.696 977.052 45.696C978.516 45.696 979.632 45.216 980.4 44.256C981.168 43.296 981.552 41.928 981.552 40.152V37.992ZM1004.09 37.992V40.152C1004.09 42.696 1003.43 44.7 1002.11 46.164C1000.81 47.628 998.953 48.36 996.529 48.36C994.129 48.36 992.269 47.628 990.949 46.164C989.629 44.7 988.969 42.696 988.969 40.152V37.992C988.969 35.496 989.617 33.516 990.913 32.052C992.233 30.564 994.105 29.82 996.529 29.82C998.953 29.82 1000.81 30.564 1002.11 32.052C1003.43 33.516 1004.09 35.496 1004.09 37.992ZM1001.03 37.992C1001.03 36.288 1000.64 34.956 999.877 33.996C999.109 33.012 997.993 32.52 996.529 32.52C995.089 32.52 993.973 33.012 993.181 33.996C992.413 34.956 992.029 36.288 992.029 37.992V40.152C992.029 41.928 992.413 43.296 993.181 44.256C993.973 45.216 995.089 45.696 996.529 45.696C997.993 45.696 999.109 45.216 999.877 44.256C1000.64 43.296 1001.03 41.928 1001.03 40.152V37.992ZM1020.43 48L1015.43 39.756C1014.97 40.212 1014.49 40.68 1013.99 41.16C1013.49 41.64 1012.96 42.12 1012.41 42.6V48H1009.45V21.36H1012.41V39.288C1013.97 37.776 1015.35 36.3 1016.55 34.86C1017.77 33.42 1018.89 31.86 1019.89 30.18H1023.28C1022.41 31.62 1021.53 32.952 1020.61 34.176C1019.73 35.376 1018.72 36.6 1017.59 37.848L1024 48H1020.43Z" fill="black"/>
</svg>
