<svg width="389" height="69" viewBox="0 0 389 69" fill="none" xmlns="http://www.w3.org/2000/svg">
<rect width="389" height="69" fill="white"/>
<path d="M23.968 26.472V23.52H41.356V26.472H34.228V48H31.096V26.472H23.968ZM52.4108 32.772C51.3308 32.772 50.2748 32.964 49.2428 33.348C48.2348 33.732 47.1548 34.464 46.0028 35.544V48H43.0508V30.18H45.8588V33.06C47.0828 31.86 48.1988 31.02 49.2068 30.54C50.2388 30.06 51.3068 29.82 52.4108 29.82V32.772ZM69.1936 46.956C68.1136 47.484 67.0336 47.844 65.9536 48.036C64.8736 48.252 63.8776 48.36 62.9656 48.36C60.3976 48.36 58.4776 47.628 57.2056 46.164C55.9576 44.7 55.3336 42.696 55.3336 40.152V37.992C55.3336 35.52 55.9576 33.54 57.2056 32.052C58.4776 30.564 60.2656 29.82 62.5696 29.82C63.7936 29.82 64.9096 30.072 65.9176 30.576C66.9496 31.056 67.7656 31.8 68.3656 32.808C68.9896 33.792 69.3016 35.064 69.3016 36.624C69.3016 37.632 69.1576 38.784 68.8696 40.08H58.2496V40.152C58.2496 41.976 58.6216 43.356 59.3656 44.292C60.1336 45.228 61.3576 45.696 63.0376 45.696C63.8056 45.696 64.6456 45.6 65.5576 45.408C66.4936 45.216 67.4056 44.916 68.2936 44.508L69.1936 46.956ZM62.5696 32.412C61.1776 32.412 60.1216 32.868 59.4016 33.78C58.7056 34.668 58.3216 35.928 58.2496 37.56H66.3136C66.3856 37.128 66.4216 36.72 66.4216 36.336C66.4216 34.992 66.0376 34.008 65.2696 33.384C64.5256 32.736 63.6256 32.412 62.5696 32.412ZM82.9782 32.592C82.3062 32.592 81.5142 32.76 80.6022 33.096C79.7142 33.432 78.6342 34.116 77.3622 35.148V48H74.4102V30.18H77.2182V32.664C78.4902 31.584 79.6422 30.84 80.6742 30.432C81.7302 30.024 82.7382 29.82 83.6982 29.82C85.3542 29.82 86.6142 30.348 87.4782 31.404C88.3662 32.436 88.8102 33.912 88.8102 35.832V48H85.8582V36.264C85.8582 33.816 84.8982 32.592 82.9782 32.592ZM105.813 48V45.516C104.709 46.572 103.701 47.316 102.789 47.748C101.901 48.156 100.977 48.36 100.017 48.36C98.1206 48.36 96.6566 47.64 95.6246 46.2C94.6166 44.76 94.1126 42.744 94.1126 40.152V38.064C94.1126 35.544 94.7366 33.54 95.9846 32.052C97.2566 30.564 99.0926 29.82 101.493 29.82C102.189 29.82 102.885 29.892 103.581 30.036C104.277 30.18 104.973 30.384 105.669 30.648V21.36H108.621V48H105.813ZM97.1726 40.152C97.1726 42.024 97.4606 43.404 98.0366 44.292C98.6366 45.156 99.5246 45.588 100.701 45.588C101.397 45.588 102.117 45.42 102.861 45.084C103.605 44.724 104.541 43.992 105.669 42.888V33.384C104.973 33.072 104.301 32.856 103.653 32.736C103.005 32.592 102.369 32.52 101.745 32.52C100.113 32.52 98.9366 33.012 98.2166 33.996C97.5206 34.98 97.1726 36.336 97.1726 38.064V40.152ZM118.113 25.824H114.801V22.512H118.113V25.824ZM117.933 48H114.981V30.18H117.933V48ZM132.865 32.592C132.193 32.592 131.401 32.76 130.489 33.096C129.601 33.432 128.521 34.116 127.249 35.148V48H124.297V30.18H127.105V32.664C128.377 31.584 129.529 30.84 130.561 30.432C131.617 30.024 132.625 29.82 133.585 29.82C135.241 29.82 136.501 30.348 137.365 31.404C138.253 32.436 138.697 33.912 138.697 35.832V48H135.745V36.264C135.745 33.816 134.785 32.592 132.865 32.592ZM159.119 50.232C159.119 51.984 158.399 53.388 156.959 54.444C155.543 55.5 153.587 56.028 151.091 56.028C149.843 56.028 148.535 55.86 147.167 55.524C145.823 55.188 144.551 54.648 143.351 53.904L144.359 51.6C145.559 52.272 146.711 52.74 147.815 53.004C148.943 53.292 150.035 53.436 151.091 53.436C152.723 53.436 153.983 53.172 154.871 52.644C155.759 52.116 156.203 51.408 156.203 50.52C156.203 49.872 155.987 49.368 155.555 49.008C155.123 48.672 154.427 48.504 153.467 48.504H149.327C147.767 48.504 146.639 48.132 145.943 47.388C145.247 46.644 144.899 45.828 144.899 44.94C144.899 44.316 145.043 43.704 145.331 43.104C145.619 42.48 146.027 41.868 146.555 41.268C145.715 40.764 145.043 40.08 144.539 39.216C144.035 38.328 143.783 37.26 143.783 36.012C143.783 34.644 144.071 33.504 144.647 32.592C145.247 31.68 146.039 30.996 147.023 30.54C148.007 30.06 149.111 29.82 150.335 29.82H150.947C151.787 29.82 152.555 29.94 153.251 30.18H159.659V32.808L155.771 32.268C156.275 32.7 156.683 33.24 156.995 33.888C157.307 34.512 157.463 35.28 157.463 36.192C157.463 37.488 157.163 38.58 156.563 39.468C155.987 40.356 155.207 41.04 154.223 41.52C153.239 41.976 152.147 42.204 150.947 42.204H150.335C150.023 42.204 149.723 42.192 149.435 42.168C149.147 42.12 148.859 42.072 148.571 42.024C147.875 42.792 147.527 43.548 147.527 44.292C147.527 45.252 148.199 45.732 149.543 45.732H153.575C155.303 45.732 156.659 46.116 157.643 46.884C158.627 47.652 159.119 48.768 159.119 50.232ZM150.947 39.648C151.883 39.648 152.711 39.348 153.431 38.748C154.151 38.148 154.511 37.236 154.511 36.012C154.511 34.812 154.151 33.912 153.431 33.312C152.711 32.688 151.883 32.376 150.947 32.376H150.335C149.375 32.376 148.535 32.688 147.815 33.312C147.095 33.912 146.735 34.812 146.735 36.012C146.735 37.236 147.095 38.148 147.815 38.748C148.535 39.348 149.375 39.648 150.335 39.648H150.947ZM172.054 48V23.52H179.65C182.458 23.52 184.618 24.372 186.13 26.076C187.642 27.756 188.398 30.084 188.398 33.06V38.424C188.398 41.424 187.642 43.776 186.13 45.48C184.618 47.16 182.458 48 179.65 48H172.054ZM179.578 26.472H175.186V45.084H179.578C183.298 45.084 185.158 42.864 185.158 38.424V33.06C185.158 28.668 183.298 26.472 179.578 26.472ZM207.252 46.956C206.172 47.484 205.092 47.844 204.012 48.036C202.932 48.252 201.936 48.36 201.024 48.36C198.456 48.36 196.536 47.628 195.264 46.164C194.016 44.7 193.392 42.696 193.392 40.152V37.992C193.392 35.52 194.016 33.54 195.264 32.052C196.536 30.564 198.324 29.82 200.628 29.82C201.852 29.82 202.968 30.072 203.976 30.576C205.008 31.056 205.824 31.8 206.424 32.808C207.048 33.792 207.36 35.064 207.36 36.624C207.36 37.632 207.216 38.784 206.928 40.08H196.308V40.152C196.308 41.976 196.68 43.356 197.424 44.292C198.192 45.228 199.416 45.696 201.096 45.696C201.864 45.696 202.704 45.6 203.616 45.408C204.552 45.216 205.464 44.916 206.352 44.508L207.252 46.956ZM200.628 32.412C199.236 32.412 198.18 32.868 197.46 33.78C196.764 34.668 196.38 35.928 196.308 37.56H204.372C204.444 37.128 204.48 36.72 204.48 36.336C204.48 34.992 204.096 34.008 203.328 33.384C202.584 32.736 201.684 32.412 200.628 32.412ZM216.825 45.732C219.225 45.732 220.425 44.916 220.425 43.284C220.425 42.588 220.209 42.036 219.777 41.628C219.345 41.22 218.553 40.872 217.401 40.584L215.421 40.08C213.957 39.72 212.865 39.096 212.145 38.208C211.425 37.296 211.065 36.216 211.065 34.968C211.065 34.056 211.269 33.216 211.677 32.448C212.085 31.656 212.733 31.02 213.621 30.54C214.509 30.06 215.661 29.82 217.077 29.82C217.989 29.82 218.913 29.928 219.849 30.144C220.809 30.336 221.781 30.672 222.765 31.152L221.829 33.636C220.077 32.844 218.493 32.448 217.077 32.448C214.989 32.448 213.945 33.228 213.945 34.788C213.945 35.388 214.137 35.904 214.521 36.336C214.905 36.768 215.625 37.116 216.681 37.38L218.661 37.884C220.245 38.268 221.409 38.892 222.153 39.756C222.897 40.62 223.269 41.736 223.269 43.104C223.269 44.088 223.053 44.988 222.621 45.804C222.213 46.596 221.541 47.22 220.605 47.676C219.693 48.132 218.457 48.36 216.897 48.36C215.865 48.36 214.833 48.252 213.801 48.036C212.793 47.82 211.749 47.472 210.669 46.992L211.461 44.544C212.493 44.952 213.429 45.252 214.269 45.444C215.109 45.636 215.961 45.732 216.825 45.732ZM237.765 47.352C236.421 48.024 234.993 48.36 233.481 48.36C232.185 48.36 231.165 48.096 230.421 47.568C229.701 47.04 229.185 46.332 228.873 45.444C228.585 44.556 228.441 43.572 228.441 42.492V32.772H225.345V30.18H228.441V25.212H231.393V30.18H237.225V32.772H231.393V42.384C231.393 43.632 231.597 44.496 232.005 44.976C232.437 45.432 233.097 45.66 233.985 45.66C234.417 45.66 234.861 45.612 235.317 45.516C235.797 45.396 236.313 45.204 236.865 44.94L237.765 47.352ZM244.78 25.824H241.468V22.512H244.78V25.824ZM244.6 48H241.648V30.18H244.6V48ZM259.533 32.592C258.861 32.592 258.069 32.76 257.157 33.096C256.269 33.432 255.189 34.116 253.917 35.148V48H250.965V30.18H253.773V32.664C255.045 31.584 256.197 30.84 257.229 30.432C258.285 30.024 259.293 29.82 260.253 29.82C261.909 29.82 263.169 30.348 264.033 31.404C264.921 32.436 265.365 33.912 265.365 35.832V48H262.413V36.264C262.413 33.816 261.453 32.592 259.533 32.592ZM284.563 48.18C283.459 48.18 282.571 47.928 281.899 47.424C281.251 46.92 280.795 46.296 280.531 45.552C279.355 46.584 278.287 47.316 277.327 47.748C276.367 48.156 275.407 48.36 274.447 48.36C272.887 48.36 271.735 47.856 270.991 46.848C270.247 45.84 269.875 44.604 269.875 43.14C269.875 42.156 270.055 41.28 270.415 40.512C270.775 39.744 271.387 39.144 272.251 38.712C273.115 38.256 274.279 38.028 275.743 38.028C276.391 38.028 277.099 38.076 277.867 38.172C278.635 38.244 279.415 38.34 280.207 38.46V36.048C280.207 34.704 279.907 33.792 279.307 33.312C278.731 32.808 277.879 32.556 276.751 32.556C275.215 32.556 273.499 32.976 271.603 33.816L270.667 31.368C271.771 30.864 272.827 30.48 273.835 30.216C274.843 29.952 275.863 29.82 276.895 29.82C278.575 29.82 279.859 30.096 280.747 30.648C281.635 31.2 282.247 31.932 282.583 32.844C282.919 33.756 283.087 34.752 283.087 35.832V43.536C283.087 44.088 283.195 44.556 283.411 44.94C283.627 45.3 284.059 45.48 284.707 45.48H285.103V48.18H284.563ZM272.791 43.104C272.791 43.92 272.983 44.58 273.367 45.084C273.751 45.588 274.303 45.84 275.023 45.84C275.647 45.84 276.367 45.66 277.183 45.3C277.999 44.916 279.007 44.16 280.207 43.032V40.764C278.575 40.5 277.135 40.368 275.887 40.368C274.783 40.368 273.991 40.596 273.511 41.052C273.031 41.508 272.791 42.192 272.791 43.104ZM299.077 47.352C297.733 48.024 296.305 48.36 294.793 48.36C293.497 48.36 292.477 48.096 291.733 47.568C291.013 47.04 290.497 46.332 290.185 45.444C289.897 44.556 289.753 43.572 289.753 42.492V32.772H286.657V30.18H289.753V25.212H292.705V30.18H298.537V32.772H292.705V42.384C292.705 43.632 292.909 44.496 293.317 44.976C293.749 45.432 294.409 45.66 295.297 45.66C295.729 45.66 296.173 45.612 296.629 45.516C297.109 45.396 297.625 45.204 298.177 44.94L299.077 47.352ZM306.093 25.824H302.781V22.512H306.093V25.824ZM305.913 48H302.961V30.18H305.913V48ZM326.389 37.992V40.152C326.389 42.696 325.729 44.7 324.409 46.164C323.113 47.628 321.253 48.36 318.829 48.36C316.429 48.36 314.569 47.628 313.249 46.164C311.929 44.7 311.269 42.696 311.269 40.152V37.992C311.269 35.496 311.917 33.516 313.213 32.052C314.533 30.564 316.405 29.82 318.829 29.82C321.253 29.82 323.113 30.564 324.409 32.052C325.729 33.516 326.389 35.496 326.389 37.992ZM323.329 37.992C323.329 36.288 322.945 34.956 322.177 33.996C321.409 33.012 320.293 32.52 318.829 32.52C317.389 32.52 316.273 33.012 315.481 33.996C314.713 34.956 314.329 36.288 314.329 37.992V40.152C314.329 41.928 314.713 43.296 315.481 44.256C316.273 45.216 317.389 45.696 318.829 45.696C320.293 45.696 321.409 45.216 322.177 44.256C322.945 43.296 323.329 41.928 323.329 40.152V37.992ZM340.322 32.592C339.65 32.592 338.858 32.76 337.946 33.096C337.058 33.432 335.978 34.116 334.706 35.148V48H331.754V30.18H334.562V32.664C335.834 31.584 336.986 30.84 338.018 30.432C339.074 30.024 340.082 29.82 341.042 29.82C342.698 29.82 343.958 30.348 344.822 31.404C345.71 32.436 346.154 33.912 346.154 35.832V48H343.202V36.264C343.202 33.816 342.242 32.592 340.322 32.592ZM356.676 45.732C359.076 45.732 360.276 44.916 360.276 43.284C360.276 42.588 360.06 42.036 359.628 41.628C359.196 41.22 358.404 40.872 357.252 40.584L355.272 40.08C353.808 39.72 352.716 39.096 351.996 38.208C351.276 37.296 350.916 36.216 350.916 34.968C350.916 34.056 351.12 33.216 351.528 32.448C351.936 31.656 352.584 31.02 353.472 30.54C354.36 30.06 355.512 29.82 356.928 29.82C357.84 29.82 358.764 29.928 359.7 30.144C360.66 30.336 361.632 30.672 362.616 31.152L361.68 33.636C359.928 32.844 358.344 32.448 356.928 32.448C354.84 32.448 353.796 33.228 353.796 34.788C353.796 35.388 353.988 35.904 354.372 36.336C354.756 36.768 355.476 37.116 356.532 37.38L358.512 37.884C360.096 38.268 361.26 38.892 362.004 39.756C362.748 40.62 363.12 41.736 363.12 43.104C363.12 44.088 362.904 44.988 362.472 45.804C362.064 46.596 361.392 47.22 360.456 47.676C359.544 48.132 358.308 48.36 356.748 48.36C355.716 48.36 354.684 48.252 353.652 48.036C352.644 47.82 351.6 47.472 350.52 46.992L351.312 44.544C352.344 44.952 353.28 45.252 354.12 45.444C354.96 45.636 355.812 45.732 356.676 45.732Z" fill="black"/>
</svg>
